M48
; DRILL file {KiCad (5.1.5-0-10_14)} date Thursday, 14 May 2020 at 18:36:56
; FORMAT={-:-/ absolute / inch / decimal}
; #@! TF.CreationDate,2020-05-14T18:36:56+02:00
; #@! TF.GenerationSoftware,Kicad,Pcbnew,(5.1.5-0-10_14)
FMAT,2
INCH
T1C0.0295
T2C0.0315
T3C0.0354
T4C0.0394
T5C0.0512
T6C0.0197
%
G90
G05
T1
X5.1Y-2.85
X5.15Y-2.85
X5.2Y-2.85
T2
X4.9213Y-2.85
X4.9213Y-3.15
X5.6299Y-2.85
X5.6299Y-3.15
T3
X5.3724Y-2.85
X5.4724Y-2.85
T4
X9.0157Y-1.8079
X9.0157Y-2.0079
X9.0157Y-2.2079
X2.0866Y-1.8079
X2.0866Y-2.0079
X2.0866Y-2.2079
X2.9528Y-1.8079
X2.9528Y-2.0079
X2.9528Y-2.2079
X9.8819Y-1.8079
X9.8819Y-2.0079
X9.8819Y-2.2079
T5
X9.5276Y-1.811
X9.5276Y-2.011
X9.5276Y-2.211
X5.8268Y-2.85
X6.0236Y-2.85
X6.2205Y-2.85
X2.4803Y-1.8047
X2.4803Y-2.0047
X2.4803Y-2.2047
T6
X9.1339Y-1.9291
X9.1339Y-1.9685
X9.1339Y-2.0079
X9.1339Y-2.0472
X9.1339Y-2.0866
X9.1339Y-2.126
X9.1339Y-2.1654
X9.1339Y-2.2047
X9.1339Y-2.2441
X9.1339Y-2.2835
X2.85Y-2.126
X2.85Y-2.1654
X2.85Y-2.2047
X2.85Y-2.2441
X2.85Y-2.2835
X2.85Y-1.7323
X2.85Y-1.7717
X2.85Y-1.811
X2.85Y-1.8504
X2.85Y-1.8898
X9.1339Y-1.7323
X9.1339Y-1.7717
X9.1339Y-1.811
X9.1339Y-1.8504
X9.1339Y-1.8898
X2.85Y-1.9291
X2.85Y-1.9685
X2.85Y-2.0079
X2.85Y-2.0472
X2.85Y-2.0866
T0
M30
