G04 #@! TF.GenerationSoftware,KiCad,Pcbnew,(5.1.5-0-10_14)*
G04 #@! TF.CreationDate,2020-05-14T18:36:20+02:00*
G04 #@! TF.ProjectId,endstop,656e6473-746f-4702-9e6b-696361645f70,rev?*
G04 #@! TF.SameCoordinates,Original*
G04 #@! TF.FileFunction,Legend,Top*
G04 #@! TF.FilePolarity,Positive*
%FSLAX46Y46*%
G04 Gerber Fmt 4.6, Leading zero omitted, Abs format (unit mm)*
G04 Created by KiCad (PCBNEW (5.1.5-0-10_14)) date 2020-05-14 18:36:20*
%MOMM*%
%LPD*%
G04 APERTURE LIST*
%ADD10C,0.300000*%
%ADD11C,2.500000*%
%ADD12C,0.120000*%
%ADD13C,0.150000*%
G04 APERTURE END LIST*
D10*
X157392857Y-62464285D02*
X157321428Y-62678571D01*
X157321428Y-63035714D01*
X157392857Y-63178571D01*
X157464285Y-63250000D01*
X157607142Y-63321428D01*
X157750000Y-63321428D01*
X157892857Y-63250000D01*
X157964285Y-63178571D01*
X158035714Y-63035714D01*
X158107142Y-62750000D01*
X158178571Y-62607142D01*
X158250000Y-62535714D01*
X158392857Y-62464285D01*
X158535714Y-62464285D01*
X158678571Y-62535714D01*
X158750000Y-62607142D01*
X158821428Y-62750000D01*
X158821428Y-63107142D01*
X158750000Y-63321428D01*
X157321428Y-63964285D02*
X158821428Y-63964285D01*
X158750000Y-65464285D02*
X158821428Y-65321428D01*
X158821428Y-65107142D01*
X158750000Y-64892857D01*
X158607142Y-64750000D01*
X158464285Y-64678571D01*
X158178571Y-64607142D01*
X157964285Y-64607142D01*
X157678571Y-64678571D01*
X157535714Y-64750000D01*
X157392857Y-64892857D01*
X157321428Y-65107142D01*
X157321428Y-65250000D01*
X157392857Y-65464285D01*
X157464285Y-65535714D01*
X157964285Y-65535714D01*
X157964285Y-65250000D01*
X152892857Y-62071428D02*
X152892857Y-63214285D01*
X152321428Y-62642857D02*
X153464285Y-62642857D01*
X153821428Y-64642857D02*
X153821428Y-63928571D01*
X153107142Y-63857142D01*
X153178571Y-63928571D01*
X153250000Y-64071428D01*
X153250000Y-64428571D01*
X153178571Y-64571428D01*
X153107142Y-64642857D01*
X152964285Y-64714285D01*
X152607142Y-64714285D01*
X152464285Y-64642857D01*
X152392857Y-64571428D01*
X152321428Y-64428571D01*
X152321428Y-64071428D01*
X152392857Y-63928571D01*
X152464285Y-63857142D01*
X153821428Y-65142857D02*
X152321428Y-65642857D01*
X153821428Y-66142857D01*
X148750000Y-62857142D02*
X148821428Y-62714285D01*
X148821428Y-62500000D01*
X148750000Y-62285714D01*
X148607142Y-62142857D01*
X148464285Y-62071428D01*
X148178571Y-62000000D01*
X147964285Y-62000000D01*
X147678571Y-62071428D01*
X147535714Y-62142857D01*
X147392857Y-62285714D01*
X147321428Y-62500000D01*
X147321428Y-62642857D01*
X147392857Y-62857142D01*
X147464285Y-62928571D01*
X147964285Y-62928571D01*
X147964285Y-62642857D01*
X147321428Y-63571428D02*
X148821428Y-63571428D01*
X147321428Y-64428571D01*
X148821428Y-64428571D01*
X147321428Y-65142857D02*
X148821428Y-65142857D01*
X148821428Y-65500000D01*
X148750000Y-65714285D01*
X148607142Y-65857142D01*
X148464285Y-65928571D01*
X148178571Y-66000000D01*
X147964285Y-66000000D01*
X147678571Y-65928571D01*
X147535714Y-65857142D01*
X147392857Y-65714285D01*
X147321428Y-65500000D01*
X147321428Y-65142857D01*
D11*
X72000000Y-71000000D02*
X72000000Y-31000000D01*
X84000000Y-71000000D02*
X72000000Y-71000000D01*
X92000000Y-79000000D02*
X84000000Y-71000000D01*
X92000000Y-91000000D02*
X92000000Y-79000000D01*
X212000000Y-91000000D02*
X92000000Y-91000000D01*
X212000000Y-79000000D02*
X212000000Y-91000000D01*
X220000000Y-71000000D02*
X212000000Y-79000000D01*
X232000000Y-71000000D02*
X220000000Y-71000000D01*
X232000000Y-31000000D02*
X232000000Y-71000000D01*
X176000000Y-31000000D02*
X232000000Y-31000000D01*
X169000000Y-37000000D02*
X176000000Y-31000000D01*
X132000000Y-37000000D02*
X169000000Y-37000000D01*
X126000000Y-31000000D02*
X132000000Y-37000000D01*
X72000000Y-31000000D02*
X126000000Y-31000000D01*
D12*
X72000000Y-31000000D02*
X84000000Y-31000000D01*
X126370000Y-72930000D02*
X126040000Y-72930000D01*
X126370000Y-79470000D02*
X126370000Y-72930000D01*
X126040000Y-79470000D02*
X126370000Y-79470000D01*
X123630000Y-72930000D02*
X123960000Y-72930000D01*
X123630000Y-79470000D02*
X123630000Y-72930000D01*
X123960000Y-79470000D02*
X123630000Y-79470000D01*
X144370000Y-72930000D02*
X144040000Y-72930000D01*
X144370000Y-79470000D02*
X144370000Y-72930000D01*
X144040000Y-79470000D02*
X144370000Y-79470000D01*
X141630000Y-72930000D02*
X141960000Y-72930000D01*
X141630000Y-79470000D02*
X141630000Y-72930000D01*
X141960000Y-79470000D02*
X141630000Y-79470000D01*
X132648478Y-74228478D02*
G75*
G03X130810000Y-69790000I-1838478J1838478D01*
G01*
X128971522Y-74228478D02*
G75*
G02X130810000Y-69790000I1838478J1838478D01*
G01*
X129010000Y-74240000D02*
X132610000Y-74240000D01*
X67300000Y-58840000D02*
X67300000Y-56840000D01*
X65060000Y-58840000D02*
X67300000Y-58840000D01*
X63976000Y-47020000D02*
X64069000Y-47114000D01*
X61725000Y-44770000D02*
X61784000Y-44829000D01*
X64216000Y-46850000D02*
X64274000Y-46909000D01*
X61931000Y-44565000D02*
X62024000Y-44659000D01*
X63976000Y-52100000D02*
X64069000Y-52194000D01*
X61725000Y-49850000D02*
X61784000Y-49909000D01*
X64216000Y-51930000D02*
X64274000Y-51989000D01*
X61931000Y-49645000D02*
X62024000Y-49739000D01*
X58940000Y-43240000D02*
X67060000Y-43240000D01*
X58940000Y-58600000D02*
X67060000Y-58600000D01*
X67060000Y-58600000D02*
X67060000Y-43240000D01*
X58940000Y-58600000D02*
X58940000Y-43240000D01*
X61000000Y-58600000D02*
X61000000Y-43240000D01*
X65000000Y-58600000D02*
X65000000Y-43240000D01*
X64680000Y-45840000D02*
G75*
G03X64680000Y-45840000I-1680000J0D01*
G01*
X64680000Y-50920000D02*
G75*
G03X64680000Y-50920000I-1680000J0D01*
G01*
X64680450Y-55970617D02*
G75*
G02X64484000Y-56789000I-1680450J-29383D01*
G01*
X63789088Y-57483953D02*
G75*
G02X62211000Y-57484000I-789088J1483953D01*
G01*
X61516047Y-56789088D02*
G75*
G02X61516000Y-55211000I1483953J789088D01*
G01*
X62210912Y-54516047D02*
G75*
G02X63789000Y-54516000I789088J-1483953D01*
G01*
X64483352Y-55211288D02*
G75*
G02X64680000Y-56000000I-1483352J-788712D01*
G01*
X237700000Y-43160000D02*
X237700000Y-45160000D01*
X239940000Y-43160000D02*
X237700000Y-43160000D01*
X241024000Y-54980000D02*
X240931000Y-54886000D01*
X243275000Y-57230000D02*
X243216000Y-57171000D01*
X240784000Y-55150000D02*
X240726000Y-55091000D01*
X243069000Y-57435000D02*
X242976000Y-57341000D01*
X241024000Y-49900000D02*
X240931000Y-49806000D01*
X243275000Y-52150000D02*
X243216000Y-52091000D01*
X240784000Y-50070000D02*
X240726000Y-50011000D01*
X243069000Y-52355000D02*
X242976000Y-52261000D01*
X246060000Y-58760000D02*
X237940000Y-58760000D01*
X246060000Y-43400000D02*
X237940000Y-43400000D01*
X237940000Y-43400000D02*
X237940000Y-58760000D01*
X246060000Y-43400000D02*
X246060000Y-58760000D01*
X244000000Y-43400000D02*
X244000000Y-58760000D01*
X240000000Y-43400000D02*
X240000000Y-58760000D01*
X243680000Y-56160000D02*
G75*
G03X243680000Y-56160000I-1680000J0D01*
G01*
X243680000Y-51080000D02*
G75*
G03X243680000Y-51080000I-1680000J0D01*
G01*
X240319550Y-46029383D02*
G75*
G02X240516000Y-45211000I1680450J29383D01*
G01*
X241210912Y-44516047D02*
G75*
G02X242789000Y-44516000I789088J-1483953D01*
G01*
X243483953Y-45210912D02*
G75*
G02X243484000Y-46789000I-1483953J-789088D01*
G01*
X242789088Y-47483953D02*
G75*
G02X241211000Y-47484000I-789088J1483953D01*
G01*
X240516648Y-46788712D02*
G75*
G02X240320000Y-46000000I1483352J788712D01*
G01*
D13*
X238100000Y-44650000D02*
X241700000Y-57350000D01*
X238100000Y-57350000D02*
X238100000Y-44650000D01*
X229000000Y-57350000D02*
X238100000Y-57350000D01*
X229000000Y-44650000D02*
X238100000Y-44650000D01*
D12*
X231000000Y-48460000D02*
X227000000Y-48460000D01*
X227000000Y-44670000D02*
X231000000Y-44670000D01*
X227000000Y-57330000D02*
X227000000Y-44670000D01*
X231000000Y-57330000D02*
X227000000Y-57330000D01*
X231000000Y-44670000D02*
X231000000Y-57330000D01*
D13*
X43900000Y-57350000D02*
X40300000Y-44650000D01*
X43900000Y-44650000D02*
X43900000Y-57350000D01*
X53000000Y-44650000D02*
X43900000Y-44650000D01*
X53000000Y-57350000D02*
X43900000Y-57350000D01*
D12*
X51000000Y-53540000D02*
X55000000Y-53540000D01*
X55000000Y-57330000D02*
X51000000Y-57330000D01*
X55000000Y-44670000D02*
X55000000Y-57330000D01*
X51000000Y-44670000D02*
X55000000Y-44670000D01*
X51000000Y-57330000D02*
X51000000Y-44670000D01*
D13*
X260100000Y-44650000D02*
X263700000Y-57350000D01*
X260100000Y-57350000D02*
X260100000Y-44650000D01*
X251000000Y-57350000D02*
X260100000Y-57350000D01*
X251000000Y-44650000D02*
X260100000Y-44650000D01*
D12*
X253000000Y-48460000D02*
X249000000Y-48460000D01*
X249000000Y-44670000D02*
X253000000Y-44670000D01*
X249000000Y-57330000D02*
X249000000Y-44670000D01*
X253000000Y-57330000D02*
X249000000Y-57330000D01*
X253000000Y-44670000D02*
X253000000Y-57330000D01*
X73000000Y-57330000D02*
X73000000Y-44670000D01*
X73000000Y-44670000D02*
X77000000Y-44670000D01*
X77000000Y-44670000D02*
X77000000Y-57330000D01*
X77000000Y-57330000D02*
X73000000Y-57330000D01*
X73000000Y-53540000D02*
X77000000Y-53540000D01*
D13*
X75000000Y-57350000D02*
X65900000Y-57350000D01*
X75000000Y-44650000D02*
X65900000Y-44650000D01*
X65900000Y-44650000D02*
X65900000Y-57350000D01*
X65900000Y-57350000D02*
X62300000Y-44650000D01*
D12*
X134740000Y-72389538D02*
G75*
G03X140290000Y-73934830I2990000J-462D01*
G01*
X134740000Y-72390462D02*
G75*
G02X140290000Y-70845170I2990000J462D01*
G01*
X140230000Y-72390000D02*
G75*
G03X140230000Y-72390000I-2500000J0D01*
G01*
X140290000Y-73935000D02*
X140290000Y-70845000D01*
X148683318Y-73924756D02*
G75*
G02X148000000Y-74070000I-683318J1534756D01*
G01*
X149535426Y-71706958D02*
G75*
G02X149535000Y-73074000I-1535426J-683042D01*
G01*
X147316958Y-70854574D02*
G75*
G02X148684000Y-70855000I683042J-1535426D01*
G01*
X146464574Y-73073042D02*
G75*
G02X146465000Y-71706000I1535426J683042D01*
G01*
X148028805Y-74070253D02*
G75*
G02X147316000Y-73925000I-28805J1680253D01*
G01*
X154680000Y-72390000D02*
G75*
G03X154680000Y-72390000I-1680000J0D01*
G01*
X159680000Y-72390000D02*
G75*
G03X159680000Y-72390000I-1680000J0D01*
G01*
X145440000Y-75890000D02*
X160560000Y-75890000D01*
X145440000Y-74390000D02*
X160560000Y-74390000D01*
X145440000Y-70089000D02*
X160560000Y-70089000D01*
X145440000Y-68030000D02*
X160560000Y-68030000D01*
X145440000Y-76450000D02*
X160560000Y-76450000D01*
X145440000Y-68030000D02*
X145440000Y-76450000D01*
X160560000Y-68030000D02*
X160560000Y-76450000D01*
X147000000Y-68090000D02*
X149000000Y-68090000D01*
X147000000Y-69090000D02*
X149000000Y-69090000D01*
X147000000Y-68090000D02*
X147000000Y-69090000D01*
X149000000Y-68090000D02*
X149000000Y-69090000D01*
X154275000Y-71321000D02*
X154228000Y-71367000D01*
X151966000Y-73629000D02*
X151931000Y-73664000D01*
X154070000Y-71115000D02*
X154035000Y-71151000D01*
X151773000Y-73413000D02*
X151726000Y-73459000D01*
X152000000Y-68090000D02*
X154000000Y-68090000D01*
X152000000Y-69090000D02*
X154000000Y-69090000D01*
X152000000Y-68090000D02*
X152000000Y-69090000D01*
X154000000Y-68090000D02*
X154000000Y-69090000D01*
X159275000Y-71321000D02*
X159228000Y-71367000D01*
X156966000Y-73629000D02*
X156931000Y-73664000D01*
X159070000Y-71115000D02*
X159035000Y-71151000D01*
X156773000Y-73413000D02*
X156726000Y-73459000D01*
X157000000Y-68090000D02*
X159000000Y-68090000D01*
X157000000Y-69090000D02*
X159000000Y-69090000D01*
X157000000Y-68090000D02*
X157000000Y-69090000D01*
X159000000Y-68090000D02*
X159000000Y-69090000D01*
X145200000Y-75950000D02*
X145200000Y-76690000D01*
X145200000Y-76690000D02*
X145700000Y-76690000D01*
D13*
X123082380Y-76366666D02*
X122606190Y-76700000D01*
X123082380Y-76938095D02*
X122082380Y-76938095D01*
X122082380Y-76557142D01*
X122130000Y-76461904D01*
X122177619Y-76414285D01*
X122272857Y-76366666D01*
X122415714Y-76366666D01*
X122510952Y-76414285D01*
X122558571Y-76461904D01*
X122606190Y-76557142D01*
X122606190Y-76938095D01*
X122177619Y-75985714D02*
X122130000Y-75938095D01*
X122082380Y-75842857D01*
X122082380Y-75604761D01*
X122130000Y-75509523D01*
X122177619Y-75461904D01*
X122272857Y-75414285D01*
X122368095Y-75414285D01*
X122510952Y-75461904D01*
X123082380Y-76033333D01*
X123082380Y-75414285D01*
X125452380Y-76414285D02*
X125452380Y-76985714D01*
X125452380Y-76700000D02*
X124452380Y-76700000D01*
X124595238Y-76795238D01*
X124690476Y-76890476D01*
X124738095Y-76985714D01*
X125452380Y-75985714D02*
X124452380Y-75985714D01*
X125452380Y-75414285D02*
X124880952Y-75842857D01*
X124452380Y-75414285D02*
X125023809Y-75985714D01*
X141082380Y-76366666D02*
X140606190Y-76700000D01*
X141082380Y-76938095D02*
X140082380Y-76938095D01*
X140082380Y-76557142D01*
X140130000Y-76461904D01*
X140177619Y-76414285D01*
X140272857Y-76366666D01*
X140415714Y-76366666D01*
X140510952Y-76414285D01*
X140558571Y-76461904D01*
X140606190Y-76557142D01*
X140606190Y-76938095D01*
X141082380Y-75414285D02*
X141082380Y-75985714D01*
X141082380Y-75700000D02*
X140082380Y-75700000D01*
X140225238Y-75795238D01*
X140320476Y-75890476D01*
X140368095Y-75985714D01*
X142547619Y-77438095D02*
X142500000Y-77390476D01*
X142452380Y-77295238D01*
X142452380Y-77057142D01*
X142500000Y-76961904D01*
X142547619Y-76914285D01*
X142642857Y-76866666D01*
X142738095Y-76866666D01*
X142880952Y-76914285D01*
X143452380Y-77485714D01*
X143452380Y-76866666D01*
X142547619Y-76485714D02*
X142500000Y-76438095D01*
X142452380Y-76342857D01*
X142452380Y-76104761D01*
X142500000Y-76009523D01*
X142547619Y-75961904D01*
X142642857Y-75914285D01*
X142738095Y-75914285D01*
X142880952Y-75961904D01*
X143452380Y-76533333D01*
X143452380Y-75914285D01*
X142452380Y-75295238D02*
X142452380Y-75200000D01*
X142500000Y-75104761D01*
X142547619Y-75057142D01*
X142642857Y-75009523D01*
X142833333Y-74961904D01*
X143071428Y-74961904D01*
X143261904Y-75009523D01*
X143357142Y-75057142D01*
X143404761Y-75104761D01*
X143452380Y-75200000D01*
X143452380Y-75295238D01*
X143404761Y-75390476D01*
X143357142Y-75438095D01*
X143261904Y-75485714D01*
X143071428Y-75533333D01*
X142833333Y-75533333D01*
X142642857Y-75485714D01*
X142547619Y-75438095D01*
X142500000Y-75390476D01*
X142452380Y-75295238D01*
X130714761Y-69377619D02*
X130619523Y-69330000D01*
X130524285Y-69234761D01*
X130381428Y-69091904D01*
X130286190Y-69044285D01*
X130190952Y-69044285D01*
X130238571Y-69282380D02*
X130143333Y-69234761D01*
X130048095Y-69139523D01*
X130000476Y-68949047D01*
X130000476Y-68615714D01*
X130048095Y-68425238D01*
X130143333Y-68330000D01*
X130238571Y-68282380D01*
X130429047Y-68282380D01*
X130524285Y-68330000D01*
X130619523Y-68425238D01*
X130667142Y-68615714D01*
X130667142Y-68949047D01*
X130619523Y-69139523D01*
X130524285Y-69234761D01*
X130429047Y-69282380D01*
X130238571Y-69282380D01*
X131619523Y-69282380D02*
X131048095Y-69282380D01*
X131333809Y-69282380D02*
X131333809Y-68282380D01*
X131238571Y-68425238D01*
X131143333Y-68520476D01*
X131048095Y-68568095D01*
X57392380Y-51253333D02*
X58106666Y-51253333D01*
X58249523Y-51300952D01*
X58344761Y-51396190D01*
X58392380Y-51539047D01*
X58392380Y-51634285D01*
X57392380Y-50872380D02*
X57392380Y-50253333D01*
X57773333Y-50586666D01*
X57773333Y-50443809D01*
X57820952Y-50348571D01*
X57868571Y-50300952D01*
X57963809Y-50253333D01*
X58201904Y-50253333D01*
X58297142Y-50300952D01*
X58344761Y-50348571D01*
X58392380Y-50443809D01*
X58392380Y-50729523D01*
X58344761Y-50824761D01*
X58297142Y-50872380D01*
X246512380Y-51413333D02*
X247226666Y-51413333D01*
X247369523Y-51460952D01*
X247464761Y-51556190D01*
X247512380Y-51699047D01*
X247512380Y-51794285D01*
X247512380Y-50413333D02*
X247512380Y-50984761D01*
X247512380Y-50699047D02*
X246512380Y-50699047D01*
X246655238Y-50794285D01*
X246750476Y-50889523D01*
X246798095Y-50984761D01*
X226404761Y-52333333D02*
X226452380Y-52190476D01*
X226452380Y-51952380D01*
X226404761Y-51857142D01*
X226357142Y-51809523D01*
X226261904Y-51761904D01*
X226166666Y-51761904D01*
X226071428Y-51809523D01*
X226023809Y-51857142D01*
X225976190Y-51952380D01*
X225928571Y-52142857D01*
X225880952Y-52238095D01*
X225833333Y-52285714D01*
X225738095Y-52333333D01*
X225642857Y-52333333D01*
X225547619Y-52285714D01*
X225500000Y-52238095D01*
X225452380Y-52142857D01*
X225452380Y-51904761D01*
X225500000Y-51761904D01*
X225452380Y-51428571D02*
X226452380Y-51190476D01*
X225738095Y-51000000D01*
X226452380Y-50809523D01*
X225452380Y-50571428D01*
X226452380Y-49666666D02*
X226452380Y-50238095D01*
X226452380Y-49952380D02*
X225452380Y-49952380D01*
X225595238Y-50047619D01*
X225690476Y-50142857D01*
X225738095Y-50238095D01*
X56404761Y-52333333D02*
X56452380Y-52190476D01*
X56452380Y-51952380D01*
X56404761Y-51857142D01*
X56357142Y-51809523D01*
X56261904Y-51761904D01*
X56166666Y-51761904D01*
X56071428Y-51809523D01*
X56023809Y-51857142D01*
X55976190Y-51952380D01*
X55928571Y-52142857D01*
X55880952Y-52238095D01*
X55833333Y-52285714D01*
X55738095Y-52333333D01*
X55642857Y-52333333D01*
X55547619Y-52285714D01*
X55500000Y-52238095D01*
X55452380Y-52142857D01*
X55452380Y-51904761D01*
X55500000Y-51761904D01*
X55452380Y-51428571D02*
X56452380Y-51190476D01*
X55738095Y-51000000D01*
X56452380Y-50809523D01*
X55452380Y-50571428D01*
X55785714Y-49761904D02*
X56452380Y-49761904D01*
X55404761Y-50000000D02*
X56119047Y-50238095D01*
X56119047Y-49619047D01*
X248404761Y-52333333D02*
X248452380Y-52190476D01*
X248452380Y-51952380D01*
X248404761Y-51857142D01*
X248357142Y-51809523D01*
X248261904Y-51761904D01*
X248166666Y-51761904D01*
X248071428Y-51809523D01*
X248023809Y-51857142D01*
X247976190Y-51952380D01*
X247928571Y-52142857D01*
X247880952Y-52238095D01*
X247833333Y-52285714D01*
X247738095Y-52333333D01*
X247642857Y-52333333D01*
X247547619Y-52285714D01*
X247500000Y-52238095D01*
X247452380Y-52142857D01*
X247452380Y-51904761D01*
X247500000Y-51761904D01*
X247452380Y-51428571D02*
X248452380Y-51190476D01*
X247738095Y-51000000D01*
X248452380Y-50809523D01*
X247452380Y-50571428D01*
X247452380Y-50285714D02*
X247452380Y-49666666D01*
X247833333Y-50000000D01*
X247833333Y-49857142D01*
X247880952Y-49761904D01*
X247928571Y-49714285D01*
X248023809Y-49666666D01*
X248261904Y-49666666D01*
X248357142Y-49714285D01*
X248404761Y-49761904D01*
X248452380Y-49857142D01*
X248452380Y-50142857D01*
X248404761Y-50238095D01*
X248357142Y-50285714D01*
X78404761Y-52333333D02*
X78452380Y-52190476D01*
X78452380Y-51952380D01*
X78404761Y-51857142D01*
X78357142Y-51809523D01*
X78261904Y-51761904D01*
X78166666Y-51761904D01*
X78071428Y-51809523D01*
X78023809Y-51857142D01*
X77976190Y-51952380D01*
X77928571Y-52142857D01*
X77880952Y-52238095D01*
X77833333Y-52285714D01*
X77738095Y-52333333D01*
X77642857Y-52333333D01*
X77547619Y-52285714D01*
X77500000Y-52238095D01*
X77452380Y-52142857D01*
X77452380Y-51904761D01*
X77500000Y-51761904D01*
X77452380Y-51428571D02*
X78452380Y-51190476D01*
X77738095Y-51000000D01*
X78452380Y-50809523D01*
X77452380Y-50571428D01*
X77547619Y-50238095D02*
X77500000Y-50190476D01*
X77452380Y-50095238D01*
X77452380Y-49857142D01*
X77500000Y-49761904D01*
X77547619Y-49714285D01*
X77642857Y-49666666D01*
X77738095Y-49666666D01*
X77880952Y-49714285D01*
X78452380Y-50285714D01*
X78452380Y-49666666D01*
X136991904Y-76802380D02*
X136991904Y-75802380D01*
X137230000Y-75802380D01*
X137372857Y-75850000D01*
X137468095Y-75945238D01*
X137515714Y-76040476D01*
X137563333Y-76230952D01*
X137563333Y-76373809D01*
X137515714Y-76564285D01*
X137468095Y-76659523D01*
X137372857Y-76754761D01*
X137230000Y-76802380D01*
X136991904Y-76802380D01*
X138515714Y-76802380D02*
X137944285Y-76802380D01*
X138230000Y-76802380D02*
X138230000Y-75802380D01*
X138134761Y-75945238D01*
X138039523Y-76040476D01*
X137944285Y-76088095D01*
M02*
