G04 #@! TF.GenerationSoftware,KiCad,Pcbnew,(5.1.5-0-10_14)*
G04 #@! TF.CreationDate,2020-05-14T18:36:20+02:00*
G04 #@! TF.ProjectId,endstop,656e6473-746f-4702-9e6b-696361645f70,rev?*
G04 #@! TF.SameCoordinates,Original*
G04 #@! TF.FileFunction,Copper,L2,Bot*
G04 #@! TF.FilePolarity,Positive*
%FSLAX46Y46*%
G04 Gerber Fmt 4.6, Leading zero omitted, Abs format (unit mm)*
G04 Created by KiCad (PCBNEW (5.1.5-0-10_14)) date 2020-05-14 18:36:20*
%MOMM*%
%LPD*%
G04 APERTURE LIST*
%ADD10O,1.600000X1.600000*%
%ADD11C,1.600000*%
%ADD12R,1.050000X1.500000*%
%ADD13O,1.050000X1.500000*%
%ADD14C,2.500000*%
%ADD15R,2.500000X2.500000*%
%ADD16O,3.000000X1.500000*%
%ADD17R,1.800000X1.800000*%
%ADD18C,1.800000*%
%ADD19R,2.600000X2.600000*%
%ADD20C,2.600000*%
%ADD21C,0.254000*%
G04 APERTURE END LIST*
D10*
X125000000Y-72390000D03*
D11*
X125000000Y-80010000D03*
D10*
X143000000Y-72390000D03*
D11*
X143000000Y-80010000D03*
D12*
X129540000Y-72390000D03*
D13*
X132080000Y-72390000D03*
X130810000Y-72390000D03*
D14*
X63000000Y-45840000D03*
X63000000Y-50920000D03*
D15*
X63000000Y-56000000D03*
D14*
X242000000Y-56160000D03*
X242000000Y-51080000D03*
D15*
X242000000Y-46000000D03*
D16*
X229000000Y-56080000D03*
X229000000Y-51000000D03*
X229000000Y-45920000D03*
X53000000Y-45920000D03*
X53000000Y-51000000D03*
X53000000Y-56080000D03*
X251000000Y-56080000D03*
X251000000Y-51000000D03*
X251000000Y-45920000D03*
X75000000Y-56080000D03*
X75000000Y-51000000D03*
X75000000Y-45920000D03*
D17*
X139000000Y-72390000D03*
D18*
X136460000Y-72390000D03*
D19*
X148000000Y-72390000D03*
D20*
X153000000Y-72390000D03*
X158000000Y-72390000D03*
D21*
G36*
X131156201Y-37541003D02*
G01*
X131179999Y-37570001D01*
X131295724Y-37664974D01*
X131427753Y-37735546D01*
X131571014Y-37779003D01*
X131682667Y-37790000D01*
X131682677Y-37790000D01*
X131720000Y-37793676D01*
X131757323Y-37790000D01*
X169262676Y-37790000D01*
X169299999Y-37793676D01*
X169337321Y-37790000D01*
X169337332Y-37790000D01*
X169448985Y-37779003D01*
X169592246Y-37735546D01*
X169724275Y-37664974D01*
X169840000Y-37570001D01*
X169863803Y-37540997D01*
X170696296Y-36708504D01*
X172365794Y-36708504D01*
X172365794Y-37351496D01*
X172491236Y-37982134D01*
X172737298Y-38576181D01*
X173094526Y-39110810D01*
X173549190Y-39565474D01*
X174083819Y-39922702D01*
X174677866Y-40168764D01*
X175308504Y-40294206D01*
X175951496Y-40294206D01*
X176582134Y-40168764D01*
X177176181Y-39922702D01*
X177710810Y-39565474D01*
X178165474Y-39110810D01*
X178522702Y-38576181D01*
X178768764Y-37982134D01*
X178894206Y-37351496D01*
X178894206Y-36708504D01*
X178768764Y-36077866D01*
X178522702Y-35483819D01*
X178165474Y-34949190D01*
X177710810Y-34494526D01*
X177176181Y-34137298D01*
X176582134Y-33891236D01*
X175951496Y-33765794D01*
X175308504Y-33765794D01*
X174677866Y-33891236D01*
X174083819Y-34137298D01*
X173549190Y-34494526D01*
X173094526Y-34949190D01*
X172737298Y-35483819D01*
X172491236Y-36077866D01*
X172365794Y-36708504D01*
X170696296Y-36708504D01*
X175944802Y-31460000D01*
X231240000Y-31460000D01*
X231240001Y-43544461D01*
X231215723Y-43580795D01*
X231149010Y-43741855D01*
X231115000Y-43912835D01*
X231115000Y-44087165D01*
X231149010Y-44258145D01*
X231215723Y-44419205D01*
X231269709Y-44500000D01*
X231215723Y-44580795D01*
X231149010Y-44741855D01*
X231115000Y-44912835D01*
X231115000Y-45087165D01*
X231149010Y-45258145D01*
X231215723Y-45419205D01*
X231269709Y-45500000D01*
X231215723Y-45580795D01*
X231149010Y-45741855D01*
X231132386Y-45825427D01*
X231114960Y-45648493D01*
X231035764Y-45387419D01*
X230907157Y-45146812D01*
X230734081Y-44935919D01*
X230523188Y-44762843D01*
X230282581Y-44634236D01*
X230021507Y-44555040D01*
X229818037Y-44535000D01*
X228181963Y-44535000D01*
X227978493Y-44555040D01*
X227717419Y-44634236D01*
X227476812Y-44762843D01*
X227265919Y-44935919D01*
X227092843Y-45146812D01*
X226964236Y-45387419D01*
X226885040Y-45648493D01*
X226858299Y-45920000D01*
X226885040Y-46191507D01*
X226964236Y-46452581D01*
X227092843Y-46693188D01*
X227265919Y-46904081D01*
X227476812Y-47077157D01*
X227717419Y-47205764D01*
X227978493Y-47284960D01*
X228181963Y-47305000D01*
X229818037Y-47305000D01*
X230021507Y-47284960D01*
X230282581Y-47205764D01*
X230523188Y-47077157D01*
X230734081Y-46904081D01*
X230907157Y-46693188D01*
X231035764Y-46452581D01*
X231114960Y-46191507D01*
X231121847Y-46121585D01*
X231149010Y-46258145D01*
X231215723Y-46419205D01*
X231269709Y-46500000D01*
X231215723Y-46580795D01*
X231149010Y-46741855D01*
X231115000Y-46912835D01*
X231115000Y-47087165D01*
X231149010Y-47258145D01*
X231215723Y-47419205D01*
X231269709Y-47500000D01*
X231215723Y-47580795D01*
X231149010Y-47741855D01*
X231115000Y-47912835D01*
X231115000Y-48087165D01*
X231149010Y-48258145D01*
X231215723Y-48419205D01*
X231269709Y-48500000D01*
X231215723Y-48580795D01*
X231149010Y-48741855D01*
X231115000Y-48912835D01*
X231115000Y-49087165D01*
X231149010Y-49258145D01*
X231215723Y-49419205D01*
X231269709Y-49500000D01*
X231215723Y-49580795D01*
X231149010Y-49741855D01*
X231115000Y-49912835D01*
X231115000Y-50087165D01*
X231149010Y-50258145D01*
X231215723Y-50419205D01*
X231269709Y-50500000D01*
X231215723Y-50580795D01*
X231149010Y-50741855D01*
X231127117Y-50851921D01*
X231114960Y-50728493D01*
X231035764Y-50467419D01*
X230907157Y-50226812D01*
X230734081Y-50015919D01*
X230523188Y-49842843D01*
X230282581Y-49714236D01*
X230021507Y-49635040D01*
X229818037Y-49615000D01*
X228181963Y-49615000D01*
X227978493Y-49635040D01*
X227717419Y-49714236D01*
X227476812Y-49842843D01*
X227265919Y-50015919D01*
X227092843Y-50226812D01*
X226964236Y-50467419D01*
X226885040Y-50728493D01*
X226858299Y-51000000D01*
X226885040Y-51271507D01*
X226964236Y-51532581D01*
X227092843Y-51773188D01*
X227265919Y-51984081D01*
X227476812Y-52157157D01*
X227717419Y-52285764D01*
X227978493Y-52364960D01*
X228181963Y-52385000D01*
X229818037Y-52385000D01*
X230021507Y-52364960D01*
X230282581Y-52285764D01*
X230523188Y-52157157D01*
X230734081Y-51984081D01*
X230907157Y-51773188D01*
X231035764Y-51532581D01*
X231114960Y-51271507D01*
X231127117Y-51148079D01*
X231149010Y-51258145D01*
X231215723Y-51419205D01*
X231269709Y-51500000D01*
X231215723Y-51580795D01*
X231149010Y-51741855D01*
X231115000Y-51912835D01*
X231115000Y-52087165D01*
X231149010Y-52258145D01*
X231215723Y-52419205D01*
X231269709Y-52500000D01*
X231215723Y-52580795D01*
X231149010Y-52741855D01*
X231115000Y-52912835D01*
X231115000Y-53087165D01*
X231149010Y-53258145D01*
X231215723Y-53419205D01*
X231269709Y-53500000D01*
X231215723Y-53580795D01*
X231149010Y-53741855D01*
X231115000Y-53912835D01*
X231115000Y-54087165D01*
X231149010Y-54258145D01*
X231215723Y-54419205D01*
X231269709Y-54500000D01*
X231215723Y-54580795D01*
X231149010Y-54741855D01*
X231115000Y-54912835D01*
X231115000Y-55087165D01*
X231149010Y-55258145D01*
X231215723Y-55419205D01*
X231269709Y-55500000D01*
X231215723Y-55580795D01*
X231149010Y-55741855D01*
X231121847Y-55878415D01*
X231114960Y-55808493D01*
X231035764Y-55547419D01*
X230907157Y-55306812D01*
X230734081Y-55095919D01*
X230523188Y-54922843D01*
X230282581Y-54794236D01*
X230021507Y-54715040D01*
X229818037Y-54695000D01*
X228181963Y-54695000D01*
X227978493Y-54715040D01*
X227717419Y-54794236D01*
X227476812Y-54922843D01*
X227265919Y-55095919D01*
X227092843Y-55306812D01*
X226964236Y-55547419D01*
X226885040Y-55808493D01*
X226858299Y-56080000D01*
X226885040Y-56351507D01*
X226964236Y-56612581D01*
X227092843Y-56853188D01*
X227265919Y-57064081D01*
X227476812Y-57237157D01*
X227717419Y-57365764D01*
X227978493Y-57444960D01*
X228181963Y-57465000D01*
X229818037Y-57465000D01*
X230021507Y-57444960D01*
X230282581Y-57365764D01*
X230523188Y-57237157D01*
X230734081Y-57064081D01*
X230907157Y-56853188D01*
X231035764Y-56612581D01*
X231114960Y-56351507D01*
X231132386Y-56174573D01*
X231149010Y-56258145D01*
X231215723Y-56419205D01*
X231269709Y-56500000D01*
X231215723Y-56580795D01*
X231149010Y-56741855D01*
X231115000Y-56912835D01*
X231115000Y-57087165D01*
X231149010Y-57258145D01*
X231215723Y-57419205D01*
X231269709Y-57500000D01*
X231215723Y-57580795D01*
X231149010Y-57741855D01*
X231115000Y-57912835D01*
X231115000Y-58087165D01*
X231149010Y-58258145D01*
X231215723Y-58419205D01*
X231267482Y-58496668D01*
X231250997Y-58551014D01*
X231236323Y-58700000D01*
X231240000Y-58737333D01*
X231240001Y-69940000D01*
X220037322Y-69940000D01*
X219999999Y-69936324D01*
X219962676Y-69940000D01*
X219962667Y-69940000D01*
X219851014Y-69950997D01*
X219707753Y-69994454D01*
X219575724Y-70065026D01*
X219575722Y-70065027D01*
X219575723Y-70065027D01*
X219488996Y-70136201D01*
X219488992Y-70136205D01*
X219459999Y-70159999D01*
X219436205Y-70188992D01*
X211489008Y-78136191D01*
X211459999Y-78159998D01*
X211365026Y-78275724D01*
X211294454Y-78407753D01*
X211250997Y-78551014D01*
X211240000Y-78662667D01*
X211240000Y-78662678D01*
X211236324Y-78700000D01*
X211240000Y-78737322D01*
X211240001Y-89939999D01*
X92760000Y-89939999D01*
X92760000Y-78737322D01*
X92763676Y-78699999D01*
X92760000Y-78662676D01*
X92760000Y-78662667D01*
X92749003Y-78551014D01*
X92705546Y-78407753D01*
X92634974Y-78275724D01*
X92621811Y-78259685D01*
X92563799Y-78188996D01*
X92563795Y-78188992D01*
X92540001Y-78159999D01*
X92511009Y-78136206D01*
X92053307Y-77678504D01*
X98735794Y-77678504D01*
X98735794Y-78321496D01*
X98861236Y-78952134D01*
X99107298Y-79546181D01*
X99464526Y-80080810D01*
X99919190Y-80535474D01*
X100453819Y-80892702D01*
X101047866Y-81138764D01*
X101678504Y-81264206D01*
X102321496Y-81264206D01*
X102952134Y-81138764D01*
X103546181Y-80892702D01*
X104080810Y-80535474D01*
X104535474Y-80080810D01*
X104677224Y-79868665D01*
X123565000Y-79868665D01*
X123565000Y-80151335D01*
X123620147Y-80428574D01*
X123728320Y-80689727D01*
X123885363Y-80924759D01*
X124085241Y-81124637D01*
X124320273Y-81281680D01*
X124581426Y-81389853D01*
X124858665Y-81445000D01*
X125141335Y-81445000D01*
X125418574Y-81389853D01*
X125679727Y-81281680D01*
X125914759Y-81124637D01*
X126114637Y-80924759D01*
X126271680Y-80689727D01*
X126379853Y-80428574D01*
X126435000Y-80151335D01*
X126435000Y-79868665D01*
X141565000Y-79868665D01*
X141565000Y-80151335D01*
X141620147Y-80428574D01*
X141728320Y-80689727D01*
X141885363Y-80924759D01*
X142085241Y-81124637D01*
X142320273Y-81281680D01*
X142581426Y-81389853D01*
X142858665Y-81445000D01*
X143141335Y-81445000D01*
X143418574Y-81389853D01*
X143679727Y-81281680D01*
X143914759Y-81124637D01*
X144114637Y-80924759D01*
X144271680Y-80689727D01*
X144379853Y-80428574D01*
X144435000Y-80151335D01*
X144435000Y-79868665D01*
X144379853Y-79591426D01*
X144271680Y-79330273D01*
X144114637Y-79095241D01*
X143914759Y-78895363D01*
X143679727Y-78738320D01*
X143418574Y-78630147D01*
X143141335Y-78575000D01*
X142858665Y-78575000D01*
X142581426Y-78630147D01*
X142320273Y-78738320D01*
X142085241Y-78895363D01*
X141885363Y-79095241D01*
X141728320Y-79330273D01*
X141620147Y-79591426D01*
X141565000Y-79868665D01*
X126435000Y-79868665D01*
X126379853Y-79591426D01*
X126271680Y-79330273D01*
X126114637Y-79095241D01*
X125914759Y-78895363D01*
X125679727Y-78738320D01*
X125418574Y-78630147D01*
X125141335Y-78575000D01*
X124858665Y-78575000D01*
X124581426Y-78630147D01*
X124320273Y-78738320D01*
X124085241Y-78895363D01*
X123885363Y-79095241D01*
X123728320Y-79330273D01*
X123620147Y-79591426D01*
X123565000Y-79868665D01*
X104677224Y-79868665D01*
X104892702Y-79546181D01*
X105138764Y-78952134D01*
X105264206Y-78321496D01*
X105264206Y-77678504D01*
X198735794Y-77678504D01*
X198735794Y-78321496D01*
X198861236Y-78952134D01*
X199107298Y-79546181D01*
X199464526Y-80080810D01*
X199919190Y-80535474D01*
X200453819Y-80892702D01*
X201047866Y-81138764D01*
X201678504Y-81264206D01*
X202321496Y-81264206D01*
X202952134Y-81138764D01*
X203546181Y-80892702D01*
X204080810Y-80535474D01*
X204535474Y-80080810D01*
X204892702Y-79546181D01*
X205138764Y-78952134D01*
X205264206Y-78321496D01*
X205264206Y-77678504D01*
X205138764Y-77047866D01*
X204892702Y-76453819D01*
X204535474Y-75919190D01*
X204080810Y-75464526D01*
X203546181Y-75107298D01*
X202952134Y-74861236D01*
X202321496Y-74735794D01*
X201678504Y-74735794D01*
X201047866Y-74861236D01*
X200453819Y-75107298D01*
X199919190Y-75464526D01*
X199464526Y-75919190D01*
X199107298Y-76453819D01*
X198861236Y-77047866D01*
X198735794Y-77678504D01*
X105264206Y-77678504D01*
X105138764Y-77047866D01*
X104892702Y-76453819D01*
X104535474Y-75919190D01*
X104080810Y-75464526D01*
X103546181Y-75107298D01*
X102952134Y-74861236D01*
X102321496Y-74735794D01*
X101678504Y-74735794D01*
X101047866Y-74861236D01*
X100453819Y-75107298D01*
X99919190Y-75464526D01*
X99464526Y-75919190D01*
X99107298Y-76453819D01*
X98861236Y-77047866D01*
X98735794Y-77678504D01*
X92053307Y-77678504D01*
X86623467Y-72248665D01*
X123565000Y-72248665D01*
X123565000Y-72531335D01*
X123620147Y-72808574D01*
X123728320Y-73069727D01*
X123885363Y-73304759D01*
X124085241Y-73504637D01*
X124320273Y-73661680D01*
X124581426Y-73769853D01*
X124858665Y-73825000D01*
X125141335Y-73825000D01*
X125418574Y-73769853D01*
X125679727Y-73661680D01*
X125914759Y-73504637D01*
X126114637Y-73304759D01*
X126271680Y-73069727D01*
X126379853Y-72808574D01*
X126435000Y-72531335D01*
X126435000Y-72248665D01*
X126379853Y-71971426D01*
X126271680Y-71710273D01*
X126224726Y-71640000D01*
X128376928Y-71640000D01*
X128376928Y-73140000D01*
X128389188Y-73264482D01*
X128425498Y-73384180D01*
X128484463Y-73494494D01*
X128563815Y-73591185D01*
X128660506Y-73670537D01*
X128770820Y-73729502D01*
X128890518Y-73765812D01*
X129015000Y-73778072D01*
X130065000Y-73778072D01*
X130189482Y-73765812D01*
X130309180Y-73729502D01*
X130373902Y-73694907D01*
X130582601Y-73758215D01*
X130810000Y-73780612D01*
X131037400Y-73758215D01*
X131256060Y-73691885D01*
X131445001Y-73590894D01*
X131633941Y-73691885D01*
X131852601Y-73758215D01*
X132080000Y-73780612D01*
X132307400Y-73758215D01*
X132526060Y-73691885D01*
X132727579Y-73584171D01*
X132904212Y-73439212D01*
X133049171Y-73262579D01*
X133156885Y-73061059D01*
X133223215Y-72842399D01*
X133240000Y-72671978D01*
X133240000Y-72456553D01*
X134919009Y-72456553D01*
X134961603Y-72755907D01*
X135061778Y-73041199D01*
X135141739Y-73190792D01*
X135395920Y-73274475D01*
X136280395Y-72390000D01*
X135395920Y-71505525D01*
X135141739Y-71589208D01*
X135010842Y-71861775D01*
X134935635Y-72154642D01*
X134919009Y-72456553D01*
X133240000Y-72456553D01*
X133240000Y-72108021D01*
X133223215Y-71937600D01*
X133156885Y-71718940D01*
X133049171Y-71517421D01*
X132904212Y-71340788D01*
X132886096Y-71325920D01*
X135575525Y-71325920D01*
X136460000Y-72210395D01*
X136474143Y-72196253D01*
X136653748Y-72375858D01*
X136639605Y-72390000D01*
X136653748Y-72404143D01*
X136474143Y-72583748D01*
X136460000Y-72569605D01*
X135575525Y-73454080D01*
X135659208Y-73708261D01*
X135931775Y-73839158D01*
X136224642Y-73914365D01*
X136526553Y-73930991D01*
X136825907Y-73888397D01*
X137111199Y-73788222D01*
X137260792Y-73708261D01*
X137344474Y-73454082D01*
X137460422Y-73570030D01*
X137507187Y-73523265D01*
X137510498Y-73534180D01*
X137569463Y-73644494D01*
X137648815Y-73741185D01*
X137745506Y-73820537D01*
X137855820Y-73879502D01*
X137975518Y-73915812D01*
X138100000Y-73928072D01*
X139900000Y-73928072D01*
X140024482Y-73915812D01*
X140144180Y-73879502D01*
X140254494Y-73820537D01*
X140351185Y-73741185D01*
X140430537Y-73644494D01*
X140489502Y-73534180D01*
X140525812Y-73414482D01*
X140538072Y-73290000D01*
X140538072Y-72248665D01*
X141565000Y-72248665D01*
X141565000Y-72531335D01*
X141620147Y-72808574D01*
X141728320Y-73069727D01*
X141885363Y-73304759D01*
X142085241Y-73504637D01*
X142320273Y-73661680D01*
X142581426Y-73769853D01*
X142858665Y-73825000D01*
X143141335Y-73825000D01*
X143418574Y-73769853D01*
X143611356Y-73690000D01*
X146061928Y-73690000D01*
X146074188Y-73814482D01*
X146110498Y-73934180D01*
X146169463Y-74044494D01*
X146248815Y-74141185D01*
X146345506Y-74220537D01*
X146455820Y-74279502D01*
X146575518Y-74315812D01*
X146700000Y-74328072D01*
X147714250Y-74325000D01*
X147873000Y-74166250D01*
X147873000Y-72517000D01*
X148127000Y-72517000D01*
X148127000Y-74166250D01*
X148285750Y-74325000D01*
X149300000Y-74328072D01*
X149424482Y-74315812D01*
X149544180Y-74279502D01*
X149654494Y-74220537D01*
X149751185Y-74141185D01*
X149830537Y-74044494D01*
X149889502Y-73934180D01*
X149925812Y-73814482D01*
X149938072Y-73690000D01*
X149935000Y-72675750D01*
X149776250Y-72517000D01*
X148127000Y-72517000D01*
X147873000Y-72517000D01*
X146223750Y-72517000D01*
X146065000Y-72675750D01*
X146061928Y-73690000D01*
X143611356Y-73690000D01*
X143679727Y-73661680D01*
X143914759Y-73504637D01*
X144114637Y-73304759D01*
X144271680Y-73069727D01*
X144379853Y-72808574D01*
X144435000Y-72531335D01*
X144435000Y-72248665D01*
X144379853Y-71971426D01*
X144271680Y-71710273D01*
X144114637Y-71475241D01*
X143914759Y-71275363D01*
X143679727Y-71118320D01*
X143611357Y-71090000D01*
X146061928Y-71090000D01*
X146065000Y-72104250D01*
X146223750Y-72263000D01*
X147873000Y-72263000D01*
X147873000Y-70613750D01*
X148127000Y-70613750D01*
X148127000Y-72263000D01*
X149776250Y-72263000D01*
X149839831Y-72199419D01*
X151065000Y-72199419D01*
X151065000Y-72580581D01*
X151139361Y-72954419D01*
X151285225Y-73306566D01*
X151496987Y-73623491D01*
X151766509Y-73893013D01*
X152083434Y-74104775D01*
X152435581Y-74250639D01*
X152809419Y-74325000D01*
X153190581Y-74325000D01*
X153564419Y-74250639D01*
X153916566Y-74104775D01*
X154233491Y-73893013D01*
X154503013Y-73623491D01*
X154714775Y-73306566D01*
X154860639Y-72954419D01*
X154935000Y-72580581D01*
X154935000Y-72199419D01*
X156065000Y-72199419D01*
X156065000Y-72580581D01*
X156139361Y-72954419D01*
X156285225Y-73306566D01*
X156496987Y-73623491D01*
X156766509Y-73893013D01*
X157083434Y-74104775D01*
X157435581Y-74250639D01*
X157809419Y-74325000D01*
X158190581Y-74325000D01*
X158564419Y-74250639D01*
X158916566Y-74104775D01*
X159233491Y-73893013D01*
X159503013Y-73623491D01*
X159714775Y-73306566D01*
X159860639Y-72954419D01*
X159935000Y-72580581D01*
X159935000Y-72199419D01*
X159860639Y-71825581D01*
X159714775Y-71473434D01*
X159503013Y-71156509D01*
X159233491Y-70886987D01*
X158916566Y-70675225D01*
X158564419Y-70529361D01*
X158190581Y-70455000D01*
X157809419Y-70455000D01*
X157435581Y-70529361D01*
X157083434Y-70675225D01*
X156766509Y-70886987D01*
X156496987Y-71156509D01*
X156285225Y-71473434D01*
X156139361Y-71825581D01*
X156065000Y-72199419D01*
X154935000Y-72199419D01*
X154860639Y-71825581D01*
X154714775Y-71473434D01*
X154503013Y-71156509D01*
X154233491Y-70886987D01*
X153916566Y-70675225D01*
X153564419Y-70529361D01*
X153190581Y-70455000D01*
X152809419Y-70455000D01*
X152435581Y-70529361D01*
X152083434Y-70675225D01*
X151766509Y-70886987D01*
X151496987Y-71156509D01*
X151285225Y-71473434D01*
X151139361Y-71825581D01*
X151065000Y-72199419D01*
X149839831Y-72199419D01*
X149935000Y-72104250D01*
X149938072Y-71090000D01*
X149925812Y-70965518D01*
X149889502Y-70845820D01*
X149830537Y-70735506D01*
X149751185Y-70638815D01*
X149654494Y-70559463D01*
X149544180Y-70500498D01*
X149424482Y-70464188D01*
X149300000Y-70451928D01*
X148285750Y-70455000D01*
X148127000Y-70613750D01*
X147873000Y-70613750D01*
X147714250Y-70455000D01*
X146700000Y-70451928D01*
X146575518Y-70464188D01*
X146455820Y-70500498D01*
X146345506Y-70559463D01*
X146248815Y-70638815D01*
X146169463Y-70735506D01*
X146110498Y-70845820D01*
X146074188Y-70965518D01*
X146061928Y-71090000D01*
X143611357Y-71090000D01*
X143418574Y-71010147D01*
X143141335Y-70955000D01*
X142858665Y-70955000D01*
X142581426Y-71010147D01*
X142320273Y-71118320D01*
X142085241Y-71275363D01*
X141885363Y-71475241D01*
X141728320Y-71710273D01*
X141620147Y-71971426D01*
X141565000Y-72248665D01*
X140538072Y-72248665D01*
X140538072Y-71490000D01*
X140525812Y-71365518D01*
X140489502Y-71245820D01*
X140430537Y-71135506D01*
X140351185Y-71038815D01*
X140254494Y-70959463D01*
X140144180Y-70900498D01*
X140024482Y-70864188D01*
X139900000Y-70851928D01*
X138100000Y-70851928D01*
X137975518Y-70864188D01*
X137855820Y-70900498D01*
X137745506Y-70959463D01*
X137648815Y-71038815D01*
X137569463Y-71135506D01*
X137510498Y-71245820D01*
X137507187Y-71256735D01*
X137460422Y-71209970D01*
X137344474Y-71325918D01*
X137260792Y-71071739D01*
X136988225Y-70940842D01*
X136695358Y-70865635D01*
X136393447Y-70849009D01*
X136094093Y-70891603D01*
X135808801Y-70991778D01*
X135659208Y-71071739D01*
X135575525Y-71325920D01*
X132886096Y-71325920D01*
X132727578Y-71195829D01*
X132526059Y-71088115D01*
X132307399Y-71021785D01*
X132080000Y-70999388D01*
X131852600Y-71021785D01*
X131633940Y-71088115D01*
X131445000Y-71189106D01*
X131256059Y-71088115D01*
X131037399Y-71021785D01*
X130810000Y-70999388D01*
X130582600Y-71021785D01*
X130373902Y-71085093D01*
X130309180Y-71050498D01*
X130189482Y-71014188D01*
X130065000Y-71001928D01*
X129015000Y-71001928D01*
X128890518Y-71014188D01*
X128770820Y-71050498D01*
X128660506Y-71109463D01*
X128563815Y-71188815D01*
X128484463Y-71285506D01*
X128425498Y-71395820D01*
X128389188Y-71515518D01*
X128376928Y-71640000D01*
X126224726Y-71640000D01*
X126114637Y-71475241D01*
X125914759Y-71275363D01*
X125679727Y-71118320D01*
X125418574Y-71010147D01*
X125141335Y-70955000D01*
X124858665Y-70955000D01*
X124581426Y-71010147D01*
X124320273Y-71118320D01*
X124085241Y-71275363D01*
X123885363Y-71475241D01*
X123728320Y-71710273D01*
X123620147Y-71971426D01*
X123565000Y-72248665D01*
X86623467Y-72248665D01*
X84563804Y-70189003D01*
X84540001Y-70159999D01*
X84424276Y-70065026D01*
X84292247Y-69994454D01*
X84148986Y-69950997D01*
X84037333Y-69940000D01*
X84037322Y-69940000D01*
X84000000Y-69936324D01*
X83962678Y-69940000D01*
X72760000Y-69940000D01*
X72760000Y-58804658D01*
X72809205Y-58784277D01*
X72954155Y-58687424D01*
X73077424Y-58564155D01*
X73174277Y-58419205D01*
X73240990Y-58258145D01*
X73275000Y-58087165D01*
X73275000Y-57912835D01*
X73240990Y-57741855D01*
X73174277Y-57580795D01*
X73120291Y-57500000D01*
X73174277Y-57419205D01*
X73240990Y-57258145D01*
X73275000Y-57087165D01*
X73275000Y-57062426D01*
X73374939Y-57161028D01*
X73602651Y-57310972D01*
X73855240Y-57413611D01*
X74123000Y-57465000D01*
X74873000Y-57465000D01*
X74873000Y-56207000D01*
X75127000Y-56207000D01*
X75127000Y-57465000D01*
X75877000Y-57465000D01*
X76144760Y-57413611D01*
X76397349Y-57310972D01*
X76625061Y-57161028D01*
X76819145Y-56969540D01*
X76972142Y-56743868D01*
X77078173Y-56492684D01*
X77092318Y-56421185D01*
X76969656Y-56207000D01*
X75127000Y-56207000D01*
X74873000Y-56207000D01*
X74853000Y-56207000D01*
X74853000Y-55953000D01*
X74873000Y-55953000D01*
X74873000Y-54695000D01*
X75127000Y-54695000D01*
X75127000Y-55953000D01*
X76969656Y-55953000D01*
X77092318Y-55738815D01*
X77078173Y-55667316D01*
X76972142Y-55416132D01*
X76819145Y-55190460D01*
X76625061Y-54998972D01*
X76397349Y-54849028D01*
X76144760Y-54746389D01*
X75877000Y-54695000D01*
X75127000Y-54695000D01*
X74873000Y-54695000D01*
X74123000Y-54695000D01*
X73855240Y-54746389D01*
X73602651Y-54849028D01*
X73374939Y-54998972D01*
X73272424Y-55100116D01*
X73275000Y-55087165D01*
X73275000Y-54912835D01*
X73240990Y-54741855D01*
X73174277Y-54580795D01*
X73120291Y-54500000D01*
X73174277Y-54419205D01*
X73240990Y-54258145D01*
X73275000Y-54087165D01*
X73275000Y-53912835D01*
X73240990Y-53741855D01*
X73174277Y-53580795D01*
X73120291Y-53500000D01*
X73174277Y-53419205D01*
X73240990Y-53258145D01*
X73275000Y-53087165D01*
X73275000Y-52912835D01*
X73240990Y-52741855D01*
X73174277Y-52580795D01*
X73120291Y-52500000D01*
X73174277Y-52419205D01*
X73240990Y-52258145D01*
X73275000Y-52087165D01*
X73275000Y-51991534D01*
X73476812Y-52157157D01*
X73717419Y-52285764D01*
X73978493Y-52364960D01*
X74181963Y-52385000D01*
X75818037Y-52385000D01*
X76021507Y-52364960D01*
X76282581Y-52285764D01*
X76523188Y-52157157D01*
X76734081Y-51984081D01*
X76907157Y-51773188D01*
X77035764Y-51532581D01*
X77114960Y-51271507D01*
X77141701Y-51000000D01*
X77114960Y-50728493D01*
X77035764Y-50467419D01*
X76907157Y-50226812D01*
X76734081Y-50015919D01*
X76523188Y-49842843D01*
X76282581Y-49714236D01*
X76021507Y-49635040D01*
X75818037Y-49615000D01*
X74181963Y-49615000D01*
X73978493Y-49635040D01*
X73717419Y-49714236D01*
X73476812Y-49842843D01*
X73275000Y-50008466D01*
X73275000Y-49912835D01*
X73240990Y-49741855D01*
X73174277Y-49580795D01*
X73120291Y-49500000D01*
X73174277Y-49419205D01*
X73240990Y-49258145D01*
X73275000Y-49087165D01*
X73275000Y-48912835D01*
X73240990Y-48741855D01*
X73174277Y-48580795D01*
X73120291Y-48500000D01*
X73174277Y-48419205D01*
X73240990Y-48258145D01*
X73275000Y-48087165D01*
X73275000Y-47912835D01*
X73240990Y-47741855D01*
X73174277Y-47580795D01*
X73120291Y-47500000D01*
X73174277Y-47419205D01*
X73240990Y-47258145D01*
X73275000Y-47087165D01*
X73275000Y-46912835D01*
X73274691Y-46911280D01*
X73476812Y-47077157D01*
X73717419Y-47205764D01*
X73978493Y-47284960D01*
X74181963Y-47305000D01*
X75818037Y-47305000D01*
X76021507Y-47284960D01*
X76282581Y-47205764D01*
X76523188Y-47077157D01*
X76734081Y-46904081D01*
X76907157Y-46693188D01*
X77035764Y-46452581D01*
X77114960Y-46191507D01*
X77141701Y-45920000D01*
X77114960Y-45648493D01*
X77035764Y-45387419D01*
X76907157Y-45146812D01*
X76734081Y-44935919D01*
X76523188Y-44762843D01*
X76282581Y-44634236D01*
X76021507Y-44555040D01*
X75818037Y-44535000D01*
X74181963Y-44535000D01*
X73978493Y-44555040D01*
X73717419Y-44634236D01*
X73476812Y-44762843D01*
X73275000Y-44928466D01*
X73275000Y-44912835D01*
X73240990Y-44741855D01*
X73174277Y-44580795D01*
X73120291Y-44500000D01*
X73174277Y-44419205D01*
X73240990Y-44258145D01*
X73275000Y-44087165D01*
X73275000Y-43912835D01*
X73240990Y-43741855D01*
X73174277Y-43580795D01*
X73077424Y-43435845D01*
X72954155Y-43312576D01*
X72809205Y-43215723D01*
X72760000Y-43195342D01*
X72760000Y-36708504D01*
X122125793Y-36708504D01*
X122125793Y-37351496D01*
X122251235Y-37982134D01*
X122497297Y-38576181D01*
X122854525Y-39110810D01*
X123309189Y-39565474D01*
X123843818Y-39922702D01*
X124437865Y-40168764D01*
X125068503Y-40294206D01*
X125711495Y-40294206D01*
X126342133Y-40168764D01*
X126936180Y-39922702D01*
X127470809Y-39565474D01*
X127925473Y-39110810D01*
X128282701Y-38576181D01*
X128528763Y-37982134D01*
X128654205Y-37351496D01*
X128654205Y-36708504D01*
X128528763Y-36077866D01*
X128282701Y-35483819D01*
X127925473Y-34949190D01*
X127470809Y-34494526D01*
X126936180Y-34137298D01*
X126342133Y-33891236D01*
X125711495Y-33765794D01*
X125068503Y-33765794D01*
X124437865Y-33891236D01*
X123843818Y-34137298D01*
X123309189Y-34494526D01*
X122854525Y-34949190D01*
X122497297Y-35483819D01*
X122251235Y-36077866D01*
X122125793Y-36708504D01*
X72760000Y-36708504D01*
X72760000Y-31460000D01*
X125075197Y-31459998D01*
X131156201Y-37541003D01*
G37*
X131156201Y-37541003D02*
X131179999Y-37570001D01*
X131295724Y-37664974D01*
X131427753Y-37735546D01*
X131571014Y-37779003D01*
X131682667Y-37790000D01*
X131682677Y-37790000D01*
X131720000Y-37793676D01*
X131757323Y-37790000D01*
X169262676Y-37790000D01*
X169299999Y-37793676D01*
X169337321Y-37790000D01*
X169337332Y-37790000D01*
X169448985Y-37779003D01*
X169592246Y-37735546D01*
X169724275Y-37664974D01*
X169840000Y-37570001D01*
X169863803Y-37540997D01*
X170696296Y-36708504D01*
X172365794Y-36708504D01*
X172365794Y-37351496D01*
X172491236Y-37982134D01*
X172737298Y-38576181D01*
X173094526Y-39110810D01*
X173549190Y-39565474D01*
X174083819Y-39922702D01*
X174677866Y-40168764D01*
X175308504Y-40294206D01*
X175951496Y-40294206D01*
X176582134Y-40168764D01*
X177176181Y-39922702D01*
X177710810Y-39565474D01*
X178165474Y-39110810D01*
X178522702Y-38576181D01*
X178768764Y-37982134D01*
X178894206Y-37351496D01*
X178894206Y-36708504D01*
X178768764Y-36077866D01*
X178522702Y-35483819D01*
X178165474Y-34949190D01*
X177710810Y-34494526D01*
X177176181Y-34137298D01*
X176582134Y-33891236D01*
X175951496Y-33765794D01*
X175308504Y-33765794D01*
X174677866Y-33891236D01*
X174083819Y-34137298D01*
X173549190Y-34494526D01*
X173094526Y-34949190D01*
X172737298Y-35483819D01*
X172491236Y-36077866D01*
X172365794Y-36708504D01*
X170696296Y-36708504D01*
X175944802Y-31460000D01*
X231240000Y-31460000D01*
X231240001Y-43544461D01*
X231215723Y-43580795D01*
X231149010Y-43741855D01*
X231115000Y-43912835D01*
X231115000Y-44087165D01*
X231149010Y-44258145D01*
X231215723Y-44419205D01*
X231269709Y-44500000D01*
X231215723Y-44580795D01*
X231149010Y-44741855D01*
X231115000Y-44912835D01*
X231115000Y-45087165D01*
X231149010Y-45258145D01*
X231215723Y-45419205D01*
X231269709Y-45500000D01*
X231215723Y-45580795D01*
X231149010Y-45741855D01*
X231132386Y-45825427D01*
X231114960Y-45648493D01*
X231035764Y-45387419D01*
X230907157Y-45146812D01*
X230734081Y-44935919D01*
X230523188Y-44762843D01*
X230282581Y-44634236D01*
X230021507Y-44555040D01*
X229818037Y-44535000D01*
X228181963Y-44535000D01*
X227978493Y-44555040D01*
X227717419Y-44634236D01*
X227476812Y-44762843D01*
X227265919Y-44935919D01*
X227092843Y-45146812D01*
X226964236Y-45387419D01*
X226885040Y-45648493D01*
X226858299Y-45920000D01*
X226885040Y-46191507D01*
X226964236Y-46452581D01*
X227092843Y-46693188D01*
X227265919Y-46904081D01*
X227476812Y-47077157D01*
X227717419Y-47205764D01*
X227978493Y-47284960D01*
X228181963Y-47305000D01*
X229818037Y-47305000D01*
X230021507Y-47284960D01*
X230282581Y-47205764D01*
X230523188Y-47077157D01*
X230734081Y-46904081D01*
X230907157Y-46693188D01*
X231035764Y-46452581D01*
X231114960Y-46191507D01*
X231121847Y-46121585D01*
X231149010Y-46258145D01*
X231215723Y-46419205D01*
X231269709Y-46500000D01*
X231215723Y-46580795D01*
X231149010Y-46741855D01*
X231115000Y-46912835D01*
X231115000Y-47087165D01*
X231149010Y-47258145D01*
X231215723Y-47419205D01*
X231269709Y-47500000D01*
X231215723Y-47580795D01*
X231149010Y-47741855D01*
X231115000Y-47912835D01*
X231115000Y-48087165D01*
X231149010Y-48258145D01*
X231215723Y-48419205D01*
X231269709Y-48500000D01*
X231215723Y-48580795D01*
X231149010Y-48741855D01*
X231115000Y-48912835D01*
X231115000Y-49087165D01*
X231149010Y-49258145D01*
X231215723Y-49419205D01*
X231269709Y-49500000D01*
X231215723Y-49580795D01*
X231149010Y-49741855D01*
X231115000Y-49912835D01*
X231115000Y-50087165D01*
X231149010Y-50258145D01*
X231215723Y-50419205D01*
X231269709Y-50500000D01*
X231215723Y-50580795D01*
X231149010Y-50741855D01*
X231127117Y-50851921D01*
X231114960Y-50728493D01*
X231035764Y-50467419D01*
X230907157Y-50226812D01*
X230734081Y-50015919D01*
X230523188Y-49842843D01*
X230282581Y-49714236D01*
X230021507Y-49635040D01*
X229818037Y-49615000D01*
X228181963Y-49615000D01*
X227978493Y-49635040D01*
X227717419Y-49714236D01*
X227476812Y-49842843D01*
X227265919Y-50015919D01*
X227092843Y-50226812D01*
X226964236Y-50467419D01*
X226885040Y-50728493D01*
X226858299Y-51000000D01*
X226885040Y-51271507D01*
X226964236Y-51532581D01*
X227092843Y-51773188D01*
X227265919Y-51984081D01*
X227476812Y-52157157D01*
X227717419Y-52285764D01*
X227978493Y-52364960D01*
X228181963Y-52385000D01*
X229818037Y-52385000D01*
X230021507Y-52364960D01*
X230282581Y-52285764D01*
X230523188Y-52157157D01*
X230734081Y-51984081D01*
X230907157Y-51773188D01*
X231035764Y-51532581D01*
X231114960Y-51271507D01*
X231127117Y-51148079D01*
X231149010Y-51258145D01*
X231215723Y-51419205D01*
X231269709Y-51500000D01*
X231215723Y-51580795D01*
X231149010Y-51741855D01*
X231115000Y-51912835D01*
X231115000Y-52087165D01*
X231149010Y-52258145D01*
X231215723Y-52419205D01*
X231269709Y-52500000D01*
X231215723Y-52580795D01*
X231149010Y-52741855D01*
X231115000Y-52912835D01*
X231115000Y-53087165D01*
X231149010Y-53258145D01*
X231215723Y-53419205D01*
X231269709Y-53500000D01*
X231215723Y-53580795D01*
X231149010Y-53741855D01*
X231115000Y-53912835D01*
X231115000Y-54087165D01*
X231149010Y-54258145D01*
X231215723Y-54419205D01*
X231269709Y-54500000D01*
X231215723Y-54580795D01*
X231149010Y-54741855D01*
X231115000Y-54912835D01*
X231115000Y-55087165D01*
X231149010Y-55258145D01*
X231215723Y-55419205D01*
X231269709Y-55500000D01*
X231215723Y-55580795D01*
X231149010Y-55741855D01*
X231121847Y-55878415D01*
X231114960Y-55808493D01*
X231035764Y-55547419D01*
X230907157Y-55306812D01*
X230734081Y-55095919D01*
X230523188Y-54922843D01*
X230282581Y-54794236D01*
X230021507Y-54715040D01*
X229818037Y-54695000D01*
X228181963Y-54695000D01*
X227978493Y-54715040D01*
X227717419Y-54794236D01*
X227476812Y-54922843D01*
X227265919Y-55095919D01*
X227092843Y-55306812D01*
X226964236Y-55547419D01*
X226885040Y-55808493D01*
X226858299Y-56080000D01*
X226885040Y-56351507D01*
X226964236Y-56612581D01*
X227092843Y-56853188D01*
X227265919Y-57064081D01*
X227476812Y-57237157D01*
X227717419Y-57365764D01*
X227978493Y-57444960D01*
X228181963Y-57465000D01*
X229818037Y-57465000D01*
X230021507Y-57444960D01*
X230282581Y-57365764D01*
X230523188Y-57237157D01*
X230734081Y-57064081D01*
X230907157Y-56853188D01*
X231035764Y-56612581D01*
X231114960Y-56351507D01*
X231132386Y-56174573D01*
X231149010Y-56258145D01*
X231215723Y-56419205D01*
X231269709Y-56500000D01*
X231215723Y-56580795D01*
X231149010Y-56741855D01*
X231115000Y-56912835D01*
X231115000Y-57087165D01*
X231149010Y-57258145D01*
X231215723Y-57419205D01*
X231269709Y-57500000D01*
X231215723Y-57580795D01*
X231149010Y-57741855D01*
X231115000Y-57912835D01*
X231115000Y-58087165D01*
X231149010Y-58258145D01*
X231215723Y-58419205D01*
X231267482Y-58496668D01*
X231250997Y-58551014D01*
X231236323Y-58700000D01*
X231240000Y-58737333D01*
X231240001Y-69940000D01*
X220037322Y-69940000D01*
X219999999Y-69936324D01*
X219962676Y-69940000D01*
X219962667Y-69940000D01*
X219851014Y-69950997D01*
X219707753Y-69994454D01*
X219575724Y-70065026D01*
X219575722Y-70065027D01*
X219575723Y-70065027D01*
X219488996Y-70136201D01*
X219488992Y-70136205D01*
X219459999Y-70159999D01*
X219436205Y-70188992D01*
X211489008Y-78136191D01*
X211459999Y-78159998D01*
X211365026Y-78275724D01*
X211294454Y-78407753D01*
X211250997Y-78551014D01*
X211240000Y-78662667D01*
X211240000Y-78662678D01*
X211236324Y-78700000D01*
X211240000Y-78737322D01*
X211240001Y-89939999D01*
X92760000Y-89939999D01*
X92760000Y-78737322D01*
X92763676Y-78699999D01*
X92760000Y-78662676D01*
X92760000Y-78662667D01*
X92749003Y-78551014D01*
X92705546Y-78407753D01*
X92634974Y-78275724D01*
X92621811Y-78259685D01*
X92563799Y-78188996D01*
X92563795Y-78188992D01*
X92540001Y-78159999D01*
X92511009Y-78136206D01*
X92053307Y-77678504D01*
X98735794Y-77678504D01*
X98735794Y-78321496D01*
X98861236Y-78952134D01*
X99107298Y-79546181D01*
X99464526Y-80080810D01*
X99919190Y-80535474D01*
X100453819Y-80892702D01*
X101047866Y-81138764D01*
X101678504Y-81264206D01*
X102321496Y-81264206D01*
X102952134Y-81138764D01*
X103546181Y-80892702D01*
X104080810Y-80535474D01*
X104535474Y-80080810D01*
X104677224Y-79868665D01*
X123565000Y-79868665D01*
X123565000Y-80151335D01*
X123620147Y-80428574D01*
X123728320Y-80689727D01*
X123885363Y-80924759D01*
X124085241Y-81124637D01*
X124320273Y-81281680D01*
X124581426Y-81389853D01*
X124858665Y-81445000D01*
X125141335Y-81445000D01*
X125418574Y-81389853D01*
X125679727Y-81281680D01*
X125914759Y-81124637D01*
X126114637Y-80924759D01*
X126271680Y-80689727D01*
X126379853Y-80428574D01*
X126435000Y-80151335D01*
X126435000Y-79868665D01*
X141565000Y-79868665D01*
X141565000Y-80151335D01*
X141620147Y-80428574D01*
X141728320Y-80689727D01*
X141885363Y-80924759D01*
X142085241Y-81124637D01*
X142320273Y-81281680D01*
X142581426Y-81389853D01*
X142858665Y-81445000D01*
X143141335Y-81445000D01*
X143418574Y-81389853D01*
X143679727Y-81281680D01*
X143914759Y-81124637D01*
X144114637Y-80924759D01*
X144271680Y-80689727D01*
X144379853Y-80428574D01*
X144435000Y-80151335D01*
X144435000Y-79868665D01*
X144379853Y-79591426D01*
X144271680Y-79330273D01*
X144114637Y-79095241D01*
X143914759Y-78895363D01*
X143679727Y-78738320D01*
X143418574Y-78630147D01*
X143141335Y-78575000D01*
X142858665Y-78575000D01*
X142581426Y-78630147D01*
X142320273Y-78738320D01*
X142085241Y-78895363D01*
X141885363Y-79095241D01*
X141728320Y-79330273D01*
X141620147Y-79591426D01*
X141565000Y-79868665D01*
X126435000Y-79868665D01*
X126379853Y-79591426D01*
X126271680Y-79330273D01*
X126114637Y-79095241D01*
X125914759Y-78895363D01*
X125679727Y-78738320D01*
X125418574Y-78630147D01*
X125141335Y-78575000D01*
X124858665Y-78575000D01*
X124581426Y-78630147D01*
X124320273Y-78738320D01*
X124085241Y-78895363D01*
X123885363Y-79095241D01*
X123728320Y-79330273D01*
X123620147Y-79591426D01*
X123565000Y-79868665D01*
X104677224Y-79868665D01*
X104892702Y-79546181D01*
X105138764Y-78952134D01*
X105264206Y-78321496D01*
X105264206Y-77678504D01*
X198735794Y-77678504D01*
X198735794Y-78321496D01*
X198861236Y-78952134D01*
X199107298Y-79546181D01*
X199464526Y-80080810D01*
X199919190Y-80535474D01*
X200453819Y-80892702D01*
X201047866Y-81138764D01*
X201678504Y-81264206D01*
X202321496Y-81264206D01*
X202952134Y-81138764D01*
X203546181Y-80892702D01*
X204080810Y-80535474D01*
X204535474Y-80080810D01*
X204892702Y-79546181D01*
X205138764Y-78952134D01*
X205264206Y-78321496D01*
X205264206Y-77678504D01*
X205138764Y-77047866D01*
X204892702Y-76453819D01*
X204535474Y-75919190D01*
X204080810Y-75464526D01*
X203546181Y-75107298D01*
X202952134Y-74861236D01*
X202321496Y-74735794D01*
X201678504Y-74735794D01*
X201047866Y-74861236D01*
X200453819Y-75107298D01*
X199919190Y-75464526D01*
X199464526Y-75919190D01*
X199107298Y-76453819D01*
X198861236Y-77047866D01*
X198735794Y-77678504D01*
X105264206Y-77678504D01*
X105138764Y-77047866D01*
X104892702Y-76453819D01*
X104535474Y-75919190D01*
X104080810Y-75464526D01*
X103546181Y-75107298D01*
X102952134Y-74861236D01*
X102321496Y-74735794D01*
X101678504Y-74735794D01*
X101047866Y-74861236D01*
X100453819Y-75107298D01*
X99919190Y-75464526D01*
X99464526Y-75919190D01*
X99107298Y-76453819D01*
X98861236Y-77047866D01*
X98735794Y-77678504D01*
X92053307Y-77678504D01*
X86623467Y-72248665D01*
X123565000Y-72248665D01*
X123565000Y-72531335D01*
X123620147Y-72808574D01*
X123728320Y-73069727D01*
X123885363Y-73304759D01*
X124085241Y-73504637D01*
X124320273Y-73661680D01*
X124581426Y-73769853D01*
X124858665Y-73825000D01*
X125141335Y-73825000D01*
X125418574Y-73769853D01*
X125679727Y-73661680D01*
X125914759Y-73504637D01*
X126114637Y-73304759D01*
X126271680Y-73069727D01*
X126379853Y-72808574D01*
X126435000Y-72531335D01*
X126435000Y-72248665D01*
X126379853Y-71971426D01*
X126271680Y-71710273D01*
X126224726Y-71640000D01*
X128376928Y-71640000D01*
X128376928Y-73140000D01*
X128389188Y-73264482D01*
X128425498Y-73384180D01*
X128484463Y-73494494D01*
X128563815Y-73591185D01*
X128660506Y-73670537D01*
X128770820Y-73729502D01*
X128890518Y-73765812D01*
X129015000Y-73778072D01*
X130065000Y-73778072D01*
X130189482Y-73765812D01*
X130309180Y-73729502D01*
X130373902Y-73694907D01*
X130582601Y-73758215D01*
X130810000Y-73780612D01*
X131037400Y-73758215D01*
X131256060Y-73691885D01*
X131445001Y-73590894D01*
X131633941Y-73691885D01*
X131852601Y-73758215D01*
X132080000Y-73780612D01*
X132307400Y-73758215D01*
X132526060Y-73691885D01*
X132727579Y-73584171D01*
X132904212Y-73439212D01*
X133049171Y-73262579D01*
X133156885Y-73061059D01*
X133223215Y-72842399D01*
X133240000Y-72671978D01*
X133240000Y-72456553D01*
X134919009Y-72456553D01*
X134961603Y-72755907D01*
X135061778Y-73041199D01*
X135141739Y-73190792D01*
X135395920Y-73274475D01*
X136280395Y-72390000D01*
X135395920Y-71505525D01*
X135141739Y-71589208D01*
X135010842Y-71861775D01*
X134935635Y-72154642D01*
X134919009Y-72456553D01*
X133240000Y-72456553D01*
X133240000Y-72108021D01*
X133223215Y-71937600D01*
X133156885Y-71718940D01*
X133049171Y-71517421D01*
X132904212Y-71340788D01*
X132886096Y-71325920D01*
X135575525Y-71325920D01*
X136460000Y-72210395D01*
X136474143Y-72196253D01*
X136653748Y-72375858D01*
X136639605Y-72390000D01*
X136653748Y-72404143D01*
X136474143Y-72583748D01*
X136460000Y-72569605D01*
X135575525Y-73454080D01*
X135659208Y-73708261D01*
X135931775Y-73839158D01*
X136224642Y-73914365D01*
X136526553Y-73930991D01*
X136825907Y-73888397D01*
X137111199Y-73788222D01*
X137260792Y-73708261D01*
X137344474Y-73454082D01*
X137460422Y-73570030D01*
X137507187Y-73523265D01*
X137510498Y-73534180D01*
X137569463Y-73644494D01*
X137648815Y-73741185D01*
X137745506Y-73820537D01*
X137855820Y-73879502D01*
X137975518Y-73915812D01*
X138100000Y-73928072D01*
X139900000Y-73928072D01*
X140024482Y-73915812D01*
X140144180Y-73879502D01*
X140254494Y-73820537D01*
X140351185Y-73741185D01*
X140430537Y-73644494D01*
X140489502Y-73534180D01*
X140525812Y-73414482D01*
X140538072Y-73290000D01*
X140538072Y-72248665D01*
X141565000Y-72248665D01*
X141565000Y-72531335D01*
X141620147Y-72808574D01*
X141728320Y-73069727D01*
X141885363Y-73304759D01*
X142085241Y-73504637D01*
X142320273Y-73661680D01*
X142581426Y-73769853D01*
X142858665Y-73825000D01*
X143141335Y-73825000D01*
X143418574Y-73769853D01*
X143611356Y-73690000D01*
X146061928Y-73690000D01*
X146074188Y-73814482D01*
X146110498Y-73934180D01*
X146169463Y-74044494D01*
X146248815Y-74141185D01*
X146345506Y-74220537D01*
X146455820Y-74279502D01*
X146575518Y-74315812D01*
X146700000Y-74328072D01*
X147714250Y-74325000D01*
X147873000Y-74166250D01*
X147873000Y-72517000D01*
X148127000Y-72517000D01*
X148127000Y-74166250D01*
X148285750Y-74325000D01*
X149300000Y-74328072D01*
X149424482Y-74315812D01*
X149544180Y-74279502D01*
X149654494Y-74220537D01*
X149751185Y-74141185D01*
X149830537Y-74044494D01*
X149889502Y-73934180D01*
X149925812Y-73814482D01*
X149938072Y-73690000D01*
X149935000Y-72675750D01*
X149776250Y-72517000D01*
X148127000Y-72517000D01*
X147873000Y-72517000D01*
X146223750Y-72517000D01*
X146065000Y-72675750D01*
X146061928Y-73690000D01*
X143611356Y-73690000D01*
X143679727Y-73661680D01*
X143914759Y-73504637D01*
X144114637Y-73304759D01*
X144271680Y-73069727D01*
X144379853Y-72808574D01*
X144435000Y-72531335D01*
X144435000Y-72248665D01*
X144379853Y-71971426D01*
X144271680Y-71710273D01*
X144114637Y-71475241D01*
X143914759Y-71275363D01*
X143679727Y-71118320D01*
X143611357Y-71090000D01*
X146061928Y-71090000D01*
X146065000Y-72104250D01*
X146223750Y-72263000D01*
X147873000Y-72263000D01*
X147873000Y-70613750D01*
X148127000Y-70613750D01*
X148127000Y-72263000D01*
X149776250Y-72263000D01*
X149839831Y-72199419D01*
X151065000Y-72199419D01*
X151065000Y-72580581D01*
X151139361Y-72954419D01*
X151285225Y-73306566D01*
X151496987Y-73623491D01*
X151766509Y-73893013D01*
X152083434Y-74104775D01*
X152435581Y-74250639D01*
X152809419Y-74325000D01*
X153190581Y-74325000D01*
X153564419Y-74250639D01*
X153916566Y-74104775D01*
X154233491Y-73893013D01*
X154503013Y-73623491D01*
X154714775Y-73306566D01*
X154860639Y-72954419D01*
X154935000Y-72580581D01*
X154935000Y-72199419D01*
X156065000Y-72199419D01*
X156065000Y-72580581D01*
X156139361Y-72954419D01*
X156285225Y-73306566D01*
X156496987Y-73623491D01*
X156766509Y-73893013D01*
X157083434Y-74104775D01*
X157435581Y-74250639D01*
X157809419Y-74325000D01*
X158190581Y-74325000D01*
X158564419Y-74250639D01*
X158916566Y-74104775D01*
X159233491Y-73893013D01*
X159503013Y-73623491D01*
X159714775Y-73306566D01*
X159860639Y-72954419D01*
X159935000Y-72580581D01*
X159935000Y-72199419D01*
X159860639Y-71825581D01*
X159714775Y-71473434D01*
X159503013Y-71156509D01*
X159233491Y-70886987D01*
X158916566Y-70675225D01*
X158564419Y-70529361D01*
X158190581Y-70455000D01*
X157809419Y-70455000D01*
X157435581Y-70529361D01*
X157083434Y-70675225D01*
X156766509Y-70886987D01*
X156496987Y-71156509D01*
X156285225Y-71473434D01*
X156139361Y-71825581D01*
X156065000Y-72199419D01*
X154935000Y-72199419D01*
X154860639Y-71825581D01*
X154714775Y-71473434D01*
X154503013Y-71156509D01*
X154233491Y-70886987D01*
X153916566Y-70675225D01*
X153564419Y-70529361D01*
X153190581Y-70455000D01*
X152809419Y-70455000D01*
X152435581Y-70529361D01*
X152083434Y-70675225D01*
X151766509Y-70886987D01*
X151496987Y-71156509D01*
X151285225Y-71473434D01*
X151139361Y-71825581D01*
X151065000Y-72199419D01*
X149839831Y-72199419D01*
X149935000Y-72104250D01*
X149938072Y-71090000D01*
X149925812Y-70965518D01*
X149889502Y-70845820D01*
X149830537Y-70735506D01*
X149751185Y-70638815D01*
X149654494Y-70559463D01*
X149544180Y-70500498D01*
X149424482Y-70464188D01*
X149300000Y-70451928D01*
X148285750Y-70455000D01*
X148127000Y-70613750D01*
X147873000Y-70613750D01*
X147714250Y-70455000D01*
X146700000Y-70451928D01*
X146575518Y-70464188D01*
X146455820Y-70500498D01*
X146345506Y-70559463D01*
X146248815Y-70638815D01*
X146169463Y-70735506D01*
X146110498Y-70845820D01*
X146074188Y-70965518D01*
X146061928Y-71090000D01*
X143611357Y-71090000D01*
X143418574Y-71010147D01*
X143141335Y-70955000D01*
X142858665Y-70955000D01*
X142581426Y-71010147D01*
X142320273Y-71118320D01*
X142085241Y-71275363D01*
X141885363Y-71475241D01*
X141728320Y-71710273D01*
X141620147Y-71971426D01*
X141565000Y-72248665D01*
X140538072Y-72248665D01*
X140538072Y-71490000D01*
X140525812Y-71365518D01*
X140489502Y-71245820D01*
X140430537Y-71135506D01*
X140351185Y-71038815D01*
X140254494Y-70959463D01*
X140144180Y-70900498D01*
X140024482Y-70864188D01*
X139900000Y-70851928D01*
X138100000Y-70851928D01*
X137975518Y-70864188D01*
X137855820Y-70900498D01*
X137745506Y-70959463D01*
X137648815Y-71038815D01*
X137569463Y-71135506D01*
X137510498Y-71245820D01*
X137507187Y-71256735D01*
X137460422Y-71209970D01*
X137344474Y-71325918D01*
X137260792Y-71071739D01*
X136988225Y-70940842D01*
X136695358Y-70865635D01*
X136393447Y-70849009D01*
X136094093Y-70891603D01*
X135808801Y-70991778D01*
X135659208Y-71071739D01*
X135575525Y-71325920D01*
X132886096Y-71325920D01*
X132727578Y-71195829D01*
X132526059Y-71088115D01*
X132307399Y-71021785D01*
X132080000Y-70999388D01*
X131852600Y-71021785D01*
X131633940Y-71088115D01*
X131445000Y-71189106D01*
X131256059Y-71088115D01*
X131037399Y-71021785D01*
X130810000Y-70999388D01*
X130582600Y-71021785D01*
X130373902Y-71085093D01*
X130309180Y-71050498D01*
X130189482Y-71014188D01*
X130065000Y-71001928D01*
X129015000Y-71001928D01*
X128890518Y-71014188D01*
X128770820Y-71050498D01*
X128660506Y-71109463D01*
X128563815Y-71188815D01*
X128484463Y-71285506D01*
X128425498Y-71395820D01*
X128389188Y-71515518D01*
X128376928Y-71640000D01*
X126224726Y-71640000D01*
X126114637Y-71475241D01*
X125914759Y-71275363D01*
X125679727Y-71118320D01*
X125418574Y-71010147D01*
X125141335Y-70955000D01*
X124858665Y-70955000D01*
X124581426Y-71010147D01*
X124320273Y-71118320D01*
X124085241Y-71275363D01*
X123885363Y-71475241D01*
X123728320Y-71710273D01*
X123620147Y-71971426D01*
X123565000Y-72248665D01*
X86623467Y-72248665D01*
X84563804Y-70189003D01*
X84540001Y-70159999D01*
X84424276Y-70065026D01*
X84292247Y-69994454D01*
X84148986Y-69950997D01*
X84037333Y-69940000D01*
X84037322Y-69940000D01*
X84000000Y-69936324D01*
X83962678Y-69940000D01*
X72760000Y-69940000D01*
X72760000Y-58804658D01*
X72809205Y-58784277D01*
X72954155Y-58687424D01*
X73077424Y-58564155D01*
X73174277Y-58419205D01*
X73240990Y-58258145D01*
X73275000Y-58087165D01*
X73275000Y-57912835D01*
X73240990Y-57741855D01*
X73174277Y-57580795D01*
X73120291Y-57500000D01*
X73174277Y-57419205D01*
X73240990Y-57258145D01*
X73275000Y-57087165D01*
X73275000Y-57062426D01*
X73374939Y-57161028D01*
X73602651Y-57310972D01*
X73855240Y-57413611D01*
X74123000Y-57465000D01*
X74873000Y-57465000D01*
X74873000Y-56207000D01*
X75127000Y-56207000D01*
X75127000Y-57465000D01*
X75877000Y-57465000D01*
X76144760Y-57413611D01*
X76397349Y-57310972D01*
X76625061Y-57161028D01*
X76819145Y-56969540D01*
X76972142Y-56743868D01*
X77078173Y-56492684D01*
X77092318Y-56421185D01*
X76969656Y-56207000D01*
X75127000Y-56207000D01*
X74873000Y-56207000D01*
X74853000Y-56207000D01*
X74853000Y-55953000D01*
X74873000Y-55953000D01*
X74873000Y-54695000D01*
X75127000Y-54695000D01*
X75127000Y-55953000D01*
X76969656Y-55953000D01*
X77092318Y-55738815D01*
X77078173Y-55667316D01*
X76972142Y-55416132D01*
X76819145Y-55190460D01*
X76625061Y-54998972D01*
X76397349Y-54849028D01*
X76144760Y-54746389D01*
X75877000Y-54695000D01*
X75127000Y-54695000D01*
X74873000Y-54695000D01*
X74123000Y-54695000D01*
X73855240Y-54746389D01*
X73602651Y-54849028D01*
X73374939Y-54998972D01*
X73272424Y-55100116D01*
X73275000Y-55087165D01*
X73275000Y-54912835D01*
X73240990Y-54741855D01*
X73174277Y-54580795D01*
X73120291Y-54500000D01*
X73174277Y-54419205D01*
X73240990Y-54258145D01*
X73275000Y-54087165D01*
X73275000Y-53912835D01*
X73240990Y-53741855D01*
X73174277Y-53580795D01*
X73120291Y-53500000D01*
X73174277Y-53419205D01*
X73240990Y-53258145D01*
X73275000Y-53087165D01*
X73275000Y-52912835D01*
X73240990Y-52741855D01*
X73174277Y-52580795D01*
X73120291Y-52500000D01*
X73174277Y-52419205D01*
X73240990Y-52258145D01*
X73275000Y-52087165D01*
X73275000Y-51991534D01*
X73476812Y-52157157D01*
X73717419Y-52285764D01*
X73978493Y-52364960D01*
X74181963Y-52385000D01*
X75818037Y-52385000D01*
X76021507Y-52364960D01*
X76282581Y-52285764D01*
X76523188Y-52157157D01*
X76734081Y-51984081D01*
X76907157Y-51773188D01*
X77035764Y-51532581D01*
X77114960Y-51271507D01*
X77141701Y-51000000D01*
X77114960Y-50728493D01*
X77035764Y-50467419D01*
X76907157Y-50226812D01*
X76734081Y-50015919D01*
X76523188Y-49842843D01*
X76282581Y-49714236D01*
X76021507Y-49635040D01*
X75818037Y-49615000D01*
X74181963Y-49615000D01*
X73978493Y-49635040D01*
X73717419Y-49714236D01*
X73476812Y-49842843D01*
X73275000Y-50008466D01*
X73275000Y-49912835D01*
X73240990Y-49741855D01*
X73174277Y-49580795D01*
X73120291Y-49500000D01*
X73174277Y-49419205D01*
X73240990Y-49258145D01*
X73275000Y-49087165D01*
X73275000Y-48912835D01*
X73240990Y-48741855D01*
X73174277Y-48580795D01*
X73120291Y-48500000D01*
X73174277Y-48419205D01*
X73240990Y-48258145D01*
X73275000Y-48087165D01*
X73275000Y-47912835D01*
X73240990Y-47741855D01*
X73174277Y-47580795D01*
X73120291Y-47500000D01*
X73174277Y-47419205D01*
X73240990Y-47258145D01*
X73275000Y-47087165D01*
X73275000Y-46912835D01*
X73274691Y-46911280D01*
X73476812Y-47077157D01*
X73717419Y-47205764D01*
X73978493Y-47284960D01*
X74181963Y-47305000D01*
X75818037Y-47305000D01*
X76021507Y-47284960D01*
X76282581Y-47205764D01*
X76523188Y-47077157D01*
X76734081Y-46904081D01*
X76907157Y-46693188D01*
X77035764Y-46452581D01*
X77114960Y-46191507D01*
X77141701Y-45920000D01*
X77114960Y-45648493D01*
X77035764Y-45387419D01*
X76907157Y-45146812D01*
X76734081Y-44935919D01*
X76523188Y-44762843D01*
X76282581Y-44634236D01*
X76021507Y-44555040D01*
X75818037Y-44535000D01*
X74181963Y-44535000D01*
X73978493Y-44555040D01*
X73717419Y-44634236D01*
X73476812Y-44762843D01*
X73275000Y-44928466D01*
X73275000Y-44912835D01*
X73240990Y-44741855D01*
X73174277Y-44580795D01*
X73120291Y-44500000D01*
X73174277Y-44419205D01*
X73240990Y-44258145D01*
X73275000Y-44087165D01*
X73275000Y-43912835D01*
X73240990Y-43741855D01*
X73174277Y-43580795D01*
X73077424Y-43435845D01*
X72954155Y-43312576D01*
X72809205Y-43215723D01*
X72760000Y-43195342D01*
X72760000Y-36708504D01*
X122125793Y-36708504D01*
X122125793Y-37351496D01*
X122251235Y-37982134D01*
X122497297Y-38576181D01*
X122854525Y-39110810D01*
X123309189Y-39565474D01*
X123843818Y-39922702D01*
X124437865Y-40168764D01*
X125068503Y-40294206D01*
X125711495Y-40294206D01*
X126342133Y-40168764D01*
X126936180Y-39922702D01*
X127470809Y-39565474D01*
X127925473Y-39110810D01*
X128282701Y-38576181D01*
X128528763Y-37982134D01*
X128654205Y-37351496D01*
X128654205Y-36708504D01*
X128528763Y-36077866D01*
X128282701Y-35483819D01*
X127925473Y-34949190D01*
X127470809Y-34494526D01*
X126936180Y-34137298D01*
X126342133Y-33891236D01*
X125711495Y-33765794D01*
X125068503Y-33765794D01*
X124437865Y-33891236D01*
X123843818Y-34137298D01*
X123309189Y-34494526D01*
X122854525Y-34949190D01*
X122497297Y-35483819D01*
X122251235Y-36077866D01*
X122125793Y-36708504D01*
X72760000Y-36708504D01*
X72760000Y-31460000D01*
X125075197Y-31459998D01*
X131156201Y-37541003D01*
M02*
